<?xml version="1.0" standalone="no"?>
<!DOCTYPE svg PUBLIC "-//W3C//DTD SVG 20010904//EN"
 "http://www.w3.org/TR/2001/REC-SVG-20010904/DTD/svg10.dtd">
<svg version="1.0" xmlns="http://www.w3.org/2000/svg"
 width="280.000000pt" height="280.000000pt" viewBox="0 0 280.000000 280.000000"
 preserveAspectRatio="xMidYMid meet">
<metadata>
Created by potrace 1.14, written by Peter Selinger 2001-2017
</metadata>
<g transform="translate(0.000000,280.000000) scale(0.100000,-0.100000)"
fill="#000000" stroke="none">
<path d="M1308 2371 c-29 -26 -33 -36 -33 -79 0 -54 20 -87 63 -103 22 -8 23
-13 20 -91 l-3 -83 -51 -6 c-135 -17 -259 -83 -361 -192 -212 -228 -213 -581
-1 -811 99 -108 227 -178 357 -194 l56 -7 3 -58 c3 -52 -2 -69 -47 -163 l-50
-104 120 0 c65 0 119 2 119 4 0 2 -22 51 -50 110 -39 83 -50 118 -50 156 0 55
-10 49 110 69 162 26 339 159 414 311 50 102 66 168 66 279 0 172 -55 306
-175 427 -102 103 -209 153 -377 179 l-38 6 0 77 0 77 34 19 c39 21 56 52 56
102 0 46 -14 70 -50 89 -47 24 -95 19 -132 -14z m52 -961 c0 -448 -2 -520 -15
-520 -7 0 -38 5 -67 11 -181 38 -346 195 -392 374 -34 129 -12 289 55 401 43
71 139 161 209 196 57 28 148 56 188 57 l22 1 0 -520z m153 505 c188 -49 338
-201 382 -386 65 -276 -104 -552 -382 -624 -31 -8 -70 -15 -85 -15 l-28 0 0
520 0 520 28 0 c15 0 54 -7 85 -15z"/>
</g>
</svg>
